<?xml version="1.0" standalone="no"?>
<!DOCTYPE svg PUBLIC "-//W3C//DTD SVG 20010904//EN"
 "http://www.w3.org/TR/2001/REC-SVG-20010904/DTD/svg10.dtd">
<svg version="1.0" xmlns="http://www.w3.org/2000/svg"
 width="260.000000pt" height="260.000000pt" viewBox="0 0 260.000000 260.000000"
 preserveAspectRatio="xMidYMid meet">
<metadata>
Created by potrace 1.14, written by Peter Selinger 2001-2017
</metadata>
<g transform="translate(0.000000,260.000000) scale(0.100000,-0.100000)"
fill="#000000" stroke="none">
<path d="M1150 2593 c-303 -50 -513 -145 -713 -323 -231 -205 -378 -478 -425
-790 -9 -60 -9 -280 0 -355 40 -329 231 -655 503 -859 182 -137 354 -211 582
-250 104 -19 353 -14 453 8 272 59 491 178 672 362 201 205 316 434 363 719
13 79 14 328 1 390 -40 196 -60 257 -132 401 -130 260 -371 484 -649 602 -75
32 -225 75 -304 88 -45 7 -317 13 -351 7z m334 -159 c161 -26 314 -87 461
-182 79 -52 222 -190 283 -272 59 -81 137 -234 166 -328 26 -82 30 -100 46
-197 8 -51 7 -294 -3 -330 -2 -11 -8 -40 -12 -65 -11 -69 -62 -206 -110 -296
-124 -236 -328 -423 -573 -525 -274 -114 -609 -115 -875 -4 -20 8 -39 15 -42
15 -13 1 -158 89 -215 130 -58 43 -172 154 -225 220 -78 97 -162 276 -202 429
-34 129 -40 354 -14 481 51 245 150 430 321 600 137 138 268 220 449 280 170
57 366 73 545 44z"/>
<path d="M1756 2293 c-4 -4 -217 -114 -474 -244 l-467 -237 0 -257 0 -256 237
-122 c131 -67 238 -125 238 -128 0 -7 -5 -10 -297 -158 l-183 -92 0 -250 c0
-148 4 -249 9 -249 6 0 34 13 63 29 29 15 132 69 228 118 96 50 274 141 395
204 121 62 234 120 252 129 l32 15 1 255 0 256 -127 66 c-71 36 -179 91 -242
123 -62 31 -109 61 -105 65 5 5 90 50 189 101 99 51 203 105 230 120 l50 28 3
245 c2 201 0 246 -11 246 -8 0 -17 -3 -21 -7z"/>
</g>
</svg>
